# xmcd
#
# Track frame offsets:
# 183
# 16320
# 34118
# 51675
# 69625
# 83763
# 102618
# 117525
# 132093
# 149683
# 167765
# 184900
# 206733
#
# Disc length: 2905 seconds
#
#
# Revision: 1
# Processed by: cddbd v1.5.2PL0 Copyright (c) Steve Scherf et al.
# Submitted via: FreeRIP 2.945 
#
DISCID=ca0b570d
DTITLE=Matmatah - La Ouache
DYEAR=1998
DGENRE=Acoustique
TTITLE0=Anter-ouache - Ouache
TTITLE1=Emma
TTITLE2=Lambé An Dro
TTITLE3=Troglodyte
TTITLE4=Kerfautras
TTITLE5=Dernière journée en mer
TTITLE6=L'apologie
TTITLE7=La fille du chat
TTITLE8=An Den Coz
TTITLE9=Derrière ton dos
TTITLE10=Les moutons
TTITLE11=La complainte de Fanch
TTITLE12=Ribette's
EXTD=
EXTT0=Live
EXTT1=Live
EXTT2=Live
EXTT3=Live
EXTT4=Live
EXTT5=Live
EXTT6=Live
EXTT7=Live
EXTT8=Live
EXTT9=Live
EXTT10=Live
EXTT11=Live
EXTT12=Live
PLAYORDER=
